STARTFONT 2.1
FONT -FontForge-ArrivalTime-Medium-R-Normal--13-720-13-13-P-69-ISO10646-1
SIZE 72 13 13
FONTBOUNDINGBOX 11 13 0 -2
COMMENT "Generated by fontforge, http://fontforge.sourceforge.net"
COMMENT "JordanLoeser"
STARTPROPERTIES 39
FOUNDRY "FontForge"
FAMILY_NAME "ArrivalTime"
WEIGHT_NAME "Medium"
SLANT "R"
SETWIDTH_NAME "Normal"
ADD_STYLE_NAME ""
PIXEL_SIZE 13
POINT_SIZE 720
RESOLUTION_X 13
RESOLUTION_Y 13
SPACING "P"
AVERAGE_WIDTH 69
CHARSET_REGISTRY "ISO10646"
CHARSET_ENCODING "1"
FONTNAME_REGISTRY ""
CHARSET_COLLECTIONS "ISO10646-1"
FONT_NAME "ArrivalTime"
FACE_NAME "ArrivalTime"
COPYRIGHT "JordanLoeser"
FONT_VERSION "001.000"
FONT_ASCENT 11
FONT_DESCENT 2
UNDERLINE_POSITION -2
UNDERLINE_THICKNESS 1
X_HEIGHT 7
CAP_HEIGHT 10
RAW_ASCENT 845
RAW_DESCENT 154
NORM_SPACE 5
RELATIVE_WEIGHT 50
RELATIVE_SETWIDTH 50
SUPERSCRIPT_X 0
SUPERSCRIPT_Y 6
SUPERSCRIPT_SIZE 9
SUBSCRIPT_X 0
SUBSCRIPT_Y 1
SUBSCRIPT_SIZE 9
AVG_LOWERCASE_WIDTH 70
AVG_UPPERCASE_WIDTH 81
ENDPROPERTIES
CHARS 78
STARTCHAR space
ENCODING 32
SWIDTH 383 0
DWIDTH 5 0
BBX 1 1 0 0
BITMAP
00
ENDCHAR
STARTCHAR exclam
ENCODING 33
SWIDTH 230 0
DWIDTH 3 0
BBX 2 11 0 0
BITMAP
C0
C0
C0
C0
C0
C0
C0
C0
00
C0
C0
ENDCHAR
STARTCHAR quotedbl
ENCODING 34
SWIDTH 460 0
DWIDTH 6 0
BBX 5 5 0 6
BITMAP
D8
D8
D8
D8
48
ENDCHAR
STARTCHAR numbersign
ENCODING 35
SWIDTH 691 0
DWIDTH 9 0
BBX 8 11 0 0
BITMAP
66
66
FF
FF
66
66
66
FF
FF
66
66
ENDCHAR
STARTCHAR dollar
ENCODING 36
SWIDTH 614 0
DWIDTH 8 0
BBX 7 13 0 -2
BITMAP
28
7C
FE
C6
C6
F0
7C
0E
C6
C6
FE
7C
28
ENDCHAR
STARTCHAR parenleft
ENCODING 40
SWIDTH 306 0
DWIDTH 4 0
BBX 3 11 0 0
BITMAP
60
60
E0
C0
C0
C0
C0
C0
E0
60
60
ENDCHAR
STARTCHAR parenright
ENCODING 41
SWIDTH 306 0
DWIDTH 4 0
BBX 3 11 0 0
BITMAP
C0
C0
E0
60
60
60
60
60
E0
C0
C0
ENDCHAR
STARTCHAR hyphen
ENCODING 45
SWIDTH 460 0
DWIDTH 6 0
BBX 5 1 0 4
BITMAP
F8
ENDCHAR
STARTCHAR period
ENCODING 46
SWIDTH 230 0
DWIDTH 3 0
BBX 2 2 0 0
BITMAP
C0
C0
ENDCHAR
STARTCHAR slash
ENCODING 47
SWIDTH 460 0
DWIDTH 6 0
BBX 5 11 0 0
BITMAP
18
18
30
30
30
60
60
60
C0
C0
C0
ENDCHAR
STARTCHAR zero
ENCODING 48
SWIDTH 538 0
DWIDTH 7 0
BBX 6 11 0 0
BITMAP
78
CC
CC
CC
CC
CC
CC
CC
CC
CC
78
ENDCHAR
STARTCHAR one
ENCODING 49
SWIDTH 538 0
DWIDTH 7 0
BBX 6 11 0 0
BITMAP
1C
3C
6C
CC
0C
0C
0C
0C
0C
0C
0C
ENDCHAR
STARTCHAR two
ENCODING 50
SWIDTH 538 0
DWIDTH 7 0
BBX 6 11 0 0
BITMAP
78
FC
CC
0C
0C
18
38
70
E0
FC
FC
ENDCHAR
STARTCHAR three
ENCODING 51
SWIDTH 538 0
DWIDTH 7 0
BBX 6 11 0 0
BITMAP
78
FC
CC
0C
38
38
0C
0C
CC
FC
78
ENDCHAR
STARTCHAR four
ENCODING 52
SWIDTH 538 0
DWIDTH 7 0
BBX 6 11 0 0
BITMAP
04
0C
1C
3C
6C
CC
FC
FC
0C
0C
0C
ENDCHAR
STARTCHAR five
ENCODING 53
SWIDTH 538 0
DWIDTH 7 0
BBX 6 11 0 0
BITMAP
FC
FC
C0
C0
F8
FC
0C
0C
0C
FC
F8
ENDCHAR
STARTCHAR six
ENCODING 54
SWIDTH 538 0
DWIDTH 7 0
BBX 6 11 0 0
BITMAP
78
FC
CC
C0
F8
FC
CC
CC
CC
FC
78
ENDCHAR
STARTCHAR seven
ENCODING 55
SWIDTH 538 0
DWIDTH 7 0
BBX 6 11 0 0
BITMAP
FC
FC
0C
18
18
30
30
60
60
C0
C0
ENDCHAR
STARTCHAR eight
ENCODING 56
SWIDTH 538 0
DWIDTH 7 0
BBX 6 11 0 0
BITMAP
78
FC
CC
CC
78
78
CC
CC
CC
FC
78
ENDCHAR
STARTCHAR nine
ENCODING 57
SWIDTH 538 0
DWIDTH 7 0
BBX 6 11 0 0
BITMAP
78
FC
CC
CC
CC
FC
7C
0C
CC
FC
78
ENDCHAR
STARTCHAR colon
ENCODING 58
SWIDTH 230 0
DWIDTH 3 0
BBX 2 7 0 2
BITMAP
C0
C0
00
00
00
C0
C0
ENDCHAR
STARTCHAR A
ENCODING 65
SWIDTH 768 0
DWIDTH 10 0
BBX 9 11 0 0
BITMAP
1C00
1C00
1C00
3600
3600
3600
6300
7F00
7F00
C180
C180
ENDCHAR
STARTCHAR B
ENCODING 66
SWIDTH 614 0
DWIDTH 8 0
BBX 7 11 0 0
BITMAP
FC
FE
C6
C6
FC
FC
C6
C6
C6
FE
FC
ENDCHAR
STARTCHAR C
ENCODING 67
SWIDTH 691 0
DWIDTH 9 0
BBX 8 11 0 0
BITMAP
3C
7E
67
C2
C0
C0
C0
C2
67
7E
3C
ENDCHAR
STARTCHAR D
ENCODING 68
SWIDTH 614 0
DWIDTH 8 0
BBX 7 11 0 0
BITMAP
F8
FC
CE
C6
C6
C6
C6
C6
CE
FC
F8
ENDCHAR
STARTCHAR E
ENCODING 69
SWIDTH 538 0
DWIDTH 7 0
BBX 6 11 0 0
BITMAP
FC
FC
C0
C0
F8
F8
C0
C0
C0
FC
FC
ENDCHAR
STARTCHAR F
ENCODING 70
SWIDTH 538 0
DWIDTH 7 0
BBX 6 11 0 0
BITMAP
FC
FC
C0
C0
F8
F8
C0
C0
C0
C0
C0
ENDCHAR
STARTCHAR G
ENCODING 71
SWIDTH 691 0
DWIDTH 9 0
BBX 8 11 0 0
BITMAP
3C
7E
67
C2
C0
CF
CF
C3
67
7E
3C
ENDCHAR
STARTCHAR H
ENCODING 72
SWIDTH 614 0
DWIDTH 8 0
BBX 7 11 0 0
BITMAP
C6
C6
C6
C6
FE
FE
C6
C6
C6
C6
C6
ENDCHAR
STARTCHAR I
ENCODING 73
SWIDTH 230 0
DWIDTH 3 0
BBX 2 11 0 0
BITMAP
C0
C0
C0
C0
C0
C0
C0
C0
C0
C0
C0
ENDCHAR
STARTCHAR J
ENCODING 74
SWIDTH 614 0
DWIDTH 8 0
BBX 7 11 0 0
BITMAP
06
06
06
06
06
06
06
C6
C6
EE
7C
ENDCHAR
STARTCHAR K
ENCODING 75
SWIDTH 538 0
DWIDTH 7 0
BBX 6 11 0 0
BITMAP
CC
CC
CC
D8
D8
F0
F8
D8
D8
CC
CC
ENDCHAR
STARTCHAR L
ENCODING 76
SWIDTH 691 0
DWIDTH 9 0
BBX 8 11 0 0
BITMAP
C0
C0
C0
C0
C0
C0
C0
C0
C0
FF
FF
ENDCHAR
STARTCHAR M
ENCODING 77
SWIDTH 844 0
DWIDTH 11 0
BBX 10 11 0 0
BITMAP
C0C0
E1C0
F3C0
FFC0
DEC0
CCC0
C0C0
C0C0
C0C0
C0C0
C0C0
ENDCHAR
STARTCHAR N
ENCODING 78
SWIDTH 614 0
DWIDTH 8 0
BBX 7 11 0 0
BITMAP
E6
F6
FE
DE
CE
C6
C6
C6
C6
C6
C6
ENDCHAR
STARTCHAR O
ENCODING 79
SWIDTH 614 0
DWIDTH 8 0
BBX 7 11 0 0
BITMAP
7C
FE
C6
C6
C6
C6
C6
C6
C6
FE
7C
ENDCHAR
STARTCHAR P
ENCODING 80
SWIDTH 614 0
DWIDTH 8 0
BBX 7 11 0 0
BITMAP
FC
FE
C6
C6
C6
FE
FC
C0
C0
C0
C0
ENDCHAR
STARTCHAR Q
ENCODING 81
SWIDTH 768 0
DWIDTH 10 0
BBX 9 11 0 0
BITMAP
7C00
FE00
C600
C600
C600
C600
DE00
CE00
C700
FF00
7D80
ENDCHAR
STARTCHAR R
ENCODING 82
SWIDTH 691 0
DWIDTH 9 0
BBX 8 11 0 0
BITMAP
FC
FE
C6
C6
C6
FE
FC
C6
C6
C6
C3
ENDCHAR
STARTCHAR S
ENCODING 83
SWIDTH 614 0
DWIDTH 8 0
BBX 7 11 0 0
BITMAP
7C
FE
C6
C6
F0
7C
0E
C6
C6
FE
7C
ENDCHAR
STARTCHAR T
ENCODING 84
SWIDTH 538 0
DWIDTH 7 0
BBX 6 11 0 0
BITMAP
FC
FC
30
30
30
30
30
30
30
30
30
ENDCHAR
STARTCHAR U
ENCODING 85
SWIDTH 614 0
DWIDTH 8 0
BBX 7 11 0 0
BITMAP
C6
C6
C6
C6
C6
C6
C6
C6
C6
7E
3C
ENDCHAR
STARTCHAR V
ENCODING 86
SWIDTH 691 0
DWIDTH 9 0
BBX 8 11 0 0
BITMAP
C3
C3
C3
C3
C3
C3
66
7E
3C
18
18
ENDCHAR
STARTCHAR W
ENCODING 87
SWIDTH 691 0
DWIDTH 9 0
BBX 8 11 0 0
BITMAP
C3
C3
C3
C3
C3
C3
DB
FF
FF
E7
C3
ENDCHAR
STARTCHAR X
ENCODING 88
SWIDTH 614 0
DWIDTH 8 0
BBX 7 11 0 0
BITMAP
C6
C6
6C
6C
38
38
6C
6C
C6
C6
C6
ENDCHAR
STARTCHAR Y
ENCODING 89
SWIDTH 691 0
DWIDTH 9 0
BBX 8 11 0 0
BITMAP
C3
C3
66
66
3C
3C
18
18
18
18
18
ENDCHAR
STARTCHAR Z
ENCODING 90
SWIDTH 614 0
DWIDTH 8 0
BBX 7 11 0 0
BITMAP
FE
FE
06
0E
1C
38
70
E0
C0
FE
FE
ENDCHAR
STARTCHAR backslash
ENCODING 92
SWIDTH 460 0
DWIDTH 6 0
BBX 5 11 0 0
BITMAP
C0
C0
60
60
60
30
30
30
18
18
18
ENDCHAR
STARTCHAR a
ENCODING 97
SWIDTH 538 0
DWIDTH 7 0
BBX 6 8 0 0
BITMAP
78
FC
CC
3C
FC
CC
FC
6C
ENDCHAR
STARTCHAR b
ENCODING 98
SWIDTH 538 0
DWIDTH 7 0
BBX 6 11 0 0
BITMAP
C0
C0
C0
F8
FC
CC
CC
CC
CC
F8
F8
ENDCHAR
STARTCHAR c
ENCODING 99
SWIDTH 538 0
DWIDTH 7 0
BBX 6 8 0 0
BITMAP
38
7C
CC
C0
C0
CC
7C
38
ENDCHAR
STARTCHAR d
ENCODING 100
SWIDTH 538 0
DWIDTH 7 0
BBX 6 11 0 0
BITMAP
0C
0C
0C
7C
FC
CC
CC
CC
CC
FC
7C
ENDCHAR
STARTCHAR e
ENCODING 101
SWIDTH 538 0
DWIDTH 7 0
BBX 6 8 0 0
BITMAP
78
FC
CC
FC
C0
CC
FC
78
ENDCHAR
STARTCHAR f
ENCODING 102
SWIDTH 383 0
DWIDTH 5 0
BBX 4 11 0 0
BITMAP
70
70
60
F0
F0
60
60
60
60
60
60
ENDCHAR
STARTCHAR g
ENCODING 103
SWIDTH 538 0
DWIDTH 7 0
BBX 6 10 0 -2
BITMAP
6C
FC
CC
CC
CC
FC
6C
0C
CC
78
ENDCHAR
STARTCHAR h
ENCODING 104
SWIDTH 538 0
DWIDTH 7 0
BBX 6 11 0 0
BITMAP
C0
C0
C0
D8
FC
CC
CC
CC
CC
CC
CC
ENDCHAR
STARTCHAR i
ENCODING 105
SWIDTH 383 0
DWIDTH 5 0
BBX 4 11 0 0
BITMAP
60
60
00
60
60
60
60
60
60
F0
F0
ENDCHAR
STARTCHAR j
ENCODING 106
SWIDTH 306 0
DWIDTH 4 0
BBX 3 13 0 -2
BITMAP
60
60
00
60
60
60
60
60
60
60
60
E0
E0
ENDCHAR
STARTCHAR k
ENCODING 107
SWIDTH 538 0
DWIDTH 7 0
BBX 6 11 0 0
BITMAP
C0
C0
C0
CC
D8
F0
F8
D8
D8
CC
CC
ENDCHAR
STARTCHAR l
ENCODING 108
SWIDTH 230 0
DWIDTH 3 0
BBX 2 11 0 0
BITMAP
C0
C0
C0
C0
C0
C0
C0
C0
C0
C0
C0
ENDCHAR
STARTCHAR m
ENCODING 109
SWIDTH 844 0
DWIDTH 11 0
BBX 10 8 0 0
BITMAP
FB80
FFC0
CCC0
CCC0
CCC0
CCC0
CCC0
CCC0
ENDCHAR
STARTCHAR n
ENCODING 110
SWIDTH 538 0
DWIDTH 7 0
BBX 6 8 0 0
BITMAP
F8
CC
CC
CC
CC
CC
CC
CC
ENDCHAR
STARTCHAR o
ENCODING 111
SWIDTH 614 0
DWIDTH 8 0
BBX 7 8 0 0
BITMAP
7C
FE
C6
C6
C6
C6
FE
7C
ENDCHAR
STARTCHAR p
ENCODING 112
SWIDTH 538 0
DWIDTH 7 0
BBX 6 10 0 -2
BITMAP
D8
FC
CC
CC
CC
CC
F8
D8
C0
C0
ENDCHAR
STARTCHAR q
ENCODING 113
SWIDTH 538 0
DWIDTH 7 0
BBX 6 10 0 -2
BITMAP
6C
FC
CC
CC
CC
CC
7C
6C
0C
0C
ENDCHAR
STARTCHAR r
ENCODING 114
SWIDTH 460 0
DWIDTH 6 0
BBX 5 8 0 0
BITMAP
70
F8
C0
C0
C0
C0
C0
C0
ENDCHAR
STARTCHAR s
ENCODING 115
SWIDTH 538 0
DWIDTH 7 0
BBX 6 8 0 0
BITMAP
78
FC
C0
F8
7C
0C
FC
F8
ENDCHAR
STARTCHAR t
ENCODING 116
SWIDTH 383 0
DWIDTH 5 0
BBX 4 11 0 0
BITMAP
60
60
F0
F0
60
60
60
60
60
70
70
ENDCHAR
STARTCHAR u
ENCODING 117
SWIDTH 538 0
DWIDTH 7 0
BBX 6 8 0 0
BITMAP
CC
CC
CC
CC
CC
CC
CC
7C
ENDCHAR
STARTCHAR v
ENCODING 118
SWIDTH 614 0
DWIDTH 8 0
BBX 7 8 0 0
BITMAP
C6
C6
C6
C6
6C
7C
38
10
ENDCHAR
STARTCHAR w
ENCODING 119
SWIDTH 921 0
DWIDTH 12 0
BBX 11 8 0 0
BITMAP
C060
C060
CE60
CE60
5B40
7BC0
71C0
71C0
ENDCHAR
STARTCHAR x
ENCODING 120
SWIDTH 614 0
DWIDTH 8 0
BBX 7 8 0 0
BITMAP
C6
6C
6C
38
38
6C
6C
C6
ENDCHAR
STARTCHAR y
ENCODING 121
SWIDTH 691 0
DWIDTH 9 0
BBX 8 10 0 -2
BITMAP
C3
C3
66
66
3C
3C
18
18
78
70
ENDCHAR
STARTCHAR z
ENCODING 122
SWIDTH 538 0
DWIDTH 7 0
BBX 5 8 1 0
BITMAP
F8
F8
18
30
60
C0
F8
F8
ENDCHAR
STARTCHAR uni00A0
ENCODING 160
SWIDTH 383 0
DWIDTH 5 0
BBX 1 1 0 0
BITMAP
00
ENDCHAR
STARTCHAR .notdef
ENCODING -1
SWIDTH 449 0
DWIDTH 6 0
BBX 5 11 1 0
BITMAP
F8
88
88
88
88
88
88
88
88
88
F8
ENDCHAR
STARTCHAR .null
ENCODING -1
SWIDTH 0 0
DWIDTH 0 0
BBX 1 1 0 0
BITMAP
00
ENDCHAR
STARTCHAR nonmarkingreturn
ENCODING -1
SWIDTH 409 0
DWIDTH 5 0
BBX 1 1 0 0
BITMAP
00
ENDCHAR
ENDFONT
